<?xml version="1.0" encoding="UTF-8"?>
<svg id="Layer_1" data-name="Layer 1" xmlns="http://www.w3.org/2000/svg" viewBox="0 0 791.28 204.16">
  <defs>
    <style>
      .cls-1 {
        fill: none;
        stroke: #000;
        stroke-miterlimit: 10;
        stroke-width: 10px;
      }
    </style>
  </defs>
  <g>
    <path d="m121.07,33.13l-24.09,14.27c-4.5-7.82-8.79-12.91-12.87-15.29-4.25-2.72-9.73-4.08-16.44-4.08-8.24,0-15.08,2.34-20.52,7.01-5.44,4.59-8.16,10.37-8.16,17.33,0,9.6,7.14,17.33,21.41,23.19l19.63,8.03c15.97,6.46,27.65,14.34,35.05,23.64,7.39,9.3,11.09,20.71,11.09,34.22,0,18.1-6.03,33.05-18.1,44.86-12.15,11.9-27.23,17.84-45.24,17.84-17.08,0-31.18-5.05-42.31-15.17-10.96-10.11-17.8-24.34-20.52-42.69l30.08-6.63c1.36,11.56,3.74,19.54,7.14,23.96,6.12,8.5,15.04,12.74,26.76,12.74,9.26,0,16.95-3.1,23.07-9.3,6.12-6.2,9.18-14.06,9.18-23.58,0-3.82-.53-7.33-1.59-10.51-1.06-3.19-2.72-6.12-4.97-8.79-2.25-2.68-5.16-5.18-8.73-7.52-3.57-2.34-7.82-4.57-12.74-6.69l-18.99-7.9c-26.93-11.38-40.4-28.04-40.4-49.96,0-14.78,5.65-27.15,16.95-37.09C37.04,5.01,51.1,0,67.93,0c22.68,0,40.4,11.05,53.14,33.13Z"/>
    <path d="m190.52,103.23v97.36h-28.67v-97.36h-12.23v-26.76h12.23V30.97h28.67v45.5h22.3v26.76h-22.3Z"/>
    <path d="m326.12,76.46h28.8v124.13h-28.8v-13c-11.81,11.05-24.51,16.57-38.1,16.57-17.16,0-31.35-6.2-42.57-18.61-11.13-12.66-16.69-28.46-16.69-47.41s5.56-34.11,16.69-46.52c11.13-12.4,25.06-18.61,41.8-18.61,14.44,0,27.4,5.95,38.87,17.84v-14.4Zm-68.05,61.68c0,11.9,3.19,21.58,9.56,29.06,6.54,7.56,14.78,11.34,24.72,11.34,10.62,0,19.2-3.65,25.74-10.96,6.54-7.56,9.81-17.16,9.81-28.8s-3.27-21.24-9.81-28.8c-6.54-7.39-15.04-11.09-25.49-11.09-9.86,0-18.1,3.74-24.72,11.21-6.54,7.56-9.81,16.91-9.81,28.04Z"/>
    <path d="m420.68,103.23v97.36h-28.68v-97.36h-12.23v-26.76h12.23V30.97h28.68v45.5h22.3v26.76h-22.3Z"/>
    <path d="m491.16,76.46v124.13h-28.67v-124.13h28.67Z"/>
    <path d="m521.62,137.64c0-17.92,6.41-33.18,19.24-45.75,12.83-12.57,28.46-18.86,46.9-18.86s34.24,6.33,47.15,18.99c12.74,12.66,19.12,28.21,19.12,46.64s-6.42,34.2-19.24,46.77c-12.92,12.49-28.76,18.73-47.54,18.73s-34.2-6.37-46.77-19.12c-12.58-12.57-18.86-28.38-18.86-47.41Zm29.31.51c0,12.41,3.31,22.22,9.94,29.44,6.8,7.31,15.76,10.96,26.89,10.96s20.18-3.61,26.89-10.83c6.71-7.22,10.07-16.86,10.07-28.93s-3.36-21.71-10.07-28.93c-6.8-7.31-15.76-10.96-26.89-10.96s-19.84,3.65-26.64,10.96c-6.8,7.31-10.2,16.74-10.2,28.29Z"/>
    <path d="m684.36,76.46h28.8v11.47c10.02-9.94,21.32-14.91,33.9-14.91,14.44,0,25.7,4.55,33.77,13.64,6.96,7.73,10.45,20.35,10.45,37.85v76.08h-28.8v-69.33c0-12.23-1.7-20.69-5.1-25.36-3.31-4.76-9.35-7.14-18.1-7.14-9.52,0-16.27,3.14-20.26,9.43-3.91,6.2-5.86,17.04-5.86,32.5v59.9h-28.8v-124.13Z"/>
  </g>
  <g>
    <line class="cls-1" x1="466.92" y1="23.05" x2="466.92" y2="68.31"/>
    <line class="cls-1" x1="486.43" y1="23.05" x2="486.43" y2="68.31"/>
    <line class="cls-1" x1="486.43" y1="23.05" x2="486.43" y2="68.31"/>
    <line class="cls-1" x1="452.48" y1="35.93" x2="407.22" y2="35.93"/>
    <line class="cls-1" x1="452.48" y1="55.44" x2="407.22" y2="55.44"/>
  </g>
</svg>